o PFMETs_V1
v -0.9071610674749596 1.1311758473631286 0
v -0.970279144850739 1.209880332398196 0
l 1 2 
o PFMETs_V1
v -1.0328419770903914 1.2878924598025496 0
v -1.0328419770903914 1.2878924598025496 0
v -1.0328419770903914 1.2878924598025496 0
v -1.0328419770903914 1.2878924598025496 0
v -1.0328419770903914 1.2878924598025496 0
v -1.0328419770903914 1.2878924598025496 0
v -1.0328419770903914 1.2878924598025496 0
v -1.0328419770903914 1.2878924598025496 0
v -1.0328419770903914 1.2878924598025496 0
v -1.0328419770903914 1.2878924598025496 0
v -1.0328419770903914 1.2878924598025496 0
v -1.0328419770903914 1.2878924598025496 0
v -1.0328419770903914 1.2878924598025496 0
v -1.0328419770903914 1.2878924598025496 0
v -1.0328419770903914 1.2878924598025496 0
v -1.0328419770903914 1.2878924598025496 0
v -1.0328419770903914 1.2878924598025496 0
v -1.0328419770903914 1.2878924598025496 0
v -1.0328419770903914 1.2878924598025496 0
v -1.0328419770903914 1.2878924598025496 0
v -1.0328419770903914 1.2878924598025496 0
v -1.0328419770903914 1.2878924598025496 0
v -1.0328419770903914 1.2878924598025496 0
v -1.0328419770903914 1.2878924598025496 0
v -1.0328419770903914 1.2878924598025496 0
v -0.9077163126110865 1.1318682049938422 0.1
v -0.8875252884042568 1.1480606574012886 0.09659258127212525
v -0.8687102489089097 1.1631496211136685 0.08660253882408142
v -0.852553409252752 1.1761068071636254 0.07071067690849304
v -0.8401558296882392 1.186049206073632 0.05
v -0.8323623850459223 1.1922992595710717 0.025881904363632205
v -0.8297041852067328 1.1944310372334945 6.123234262925839e-18
v -0.8323623850459223 1.1922992595710717 -0.025881904363632205
v -0.8401558296882392 1.186049206073632 -0.05
v -0.852553409252752 1.1761068071636254 -0.07071067690849304
v -0.8687102489089097 1.1631496211136685 -0.08660253882408142
v -0.8875252884042568 1.1480606574012886 -0.09659258127212525
v -0.9077163126110865 1.1318682049938422 -0.1
v -0.9279073368179163 1.1156757525863958 -0.09659258127212525
v -0.9467223763132634 1.100586788874016 -0.08660253882408142
v -0.962879215969421 1.087629602824059 -0.07071067690849304
v -0.9752767955339339 1.0776872039140524 -0.05
v -0.9830702401762508 1.0714371504166127 -0.025881904363632205
v -0.9857284400154402 1.06930537275419 -1.836970146528854e-17
v -0.9830702401762508 1.0714371504166127 0.025881904363632205
v -0.9752767955339339 1.0776872039140524 0.05
v -0.962879215969421 1.087629602824059 0.07071067690849304
v -0.9467223763132634 1.100586788874016 0.08660253882408142
v -0.9279073368179163 1.1156757525863958 0.09659258127212525
v -0.9077163126110865 1.1318682049938422 0.1
v -0.9077163126110865 1.1318682049938422 0
v -0.9077163126110865 1.1318682049938422 0
v -0.9077163126110865 1.1318682049938422 0
v -0.9077163126110865 1.1318682049938422 0
v -0.9077163126110865 1.1318682049938422 0
v -0.9077163126110865 1.1318682049938422 0
v -0.9077163126110865 1.1318682049938422 0
v -0.9077163126110865 1.1318682049938422 0
v -0.9077163126110865 1.1318682049938422 0
v -0.9077163126110865 1.1318682049938422 0
v -0.9077163126110865 1.1318682049938422 0
v -0.9077163126110865 1.1318682049938422 0
v -0.9077163126110865 1.1318682049938422 0
v -0.9077163126110865 1.1318682049938422 0
v -0.9077163126110865 1.1318682049938422 0
v -0.9077163126110865 1.1318682049938422 0
v -0.9077163126110865 1.1318682049938422 0
v -0.9077163126110865 1.1318682049938422 0
v -0.9077163126110865 1.1318682049938422 0
v -0.9077163126110865 1.1318682049938422 0
v -0.9077163126110865 1.1318682049938422 0
v -0.9077163126110865 1.1318682049938422 0
v -0.9077163126110865 1.1318682049938422 0
v -0.9077163126110865 1.1318682049938422 0
v -0.9077163126110865 1.1318682049938422 0.1
v -0.8875252884042568 1.1480606574012886 0.09659258127212525
v -0.8687102489089097 1.1631496211136685 0.08660253882408142
v -0.852553409252752 1.1761068071636254 0.07071067690849304
v -0.8401558296882392 1.186049206073632 0.05
v -0.8323623850459223 1.1922992595710717 0.025881904363632205
v -0.8297041852067328 1.1944310372334945 6.123234262925839e-18
v -0.8323623850459223 1.1922992595710717 -0.025881904363632205
v -0.8401558296882392 1.186049206073632 -0.05
v -0.852553409252752 1.1761068071636254 -0.07071067690849304
v -0.8687102489089097 1.1631496211136685 -0.08660253882408142
v -0.8875252884042568 1.1480606574012886 -0.09659258127212525
v -0.9077163126110865 1.1318682049938422 -0.1
v -0.9279073368179163 1.1156757525863958 -0.09659258127212525
v -0.9467223763132634 1.100586788874016 -0.08660253882408142
v -0.962879215969421 1.087629602824059 -0.07071067690849304
v -0.9752767955339339 1.0776872039140524 -0.05
v -0.9830702401762508 1.0714371504166127 -0.025881904363632205
v -0.9857284400154402 1.06930537275419 -1.836970146528854e-17
v -0.9830702401762508 1.0714371504166127 0.025881904363632205
v -0.9752767955339339 1.0776872039140524 0.05
v -0.962879215969421 1.087629602824059 0.07071067690849304
v -0.9467223763132634 1.100586788874016 0.08660253882408142
v -0.9279073368179163 1.1156757525863958 0.09659258127212525
v -0.9077163126110865 1.1318682049938422 0.1
vt 0 1
vt 0.0416666679084301 1
vt 0.0833333358168602 1
vt 0.125 1
vt 0.1666666716337204 1
vt 0.2083333283662796 1
vt 0.25 1
vt 0.2916666567325592 1
vt 0.3333333432674408 1
vt 0.375 1
vt 0.4166666567325592 1
vt 0.4583333432674408 1
vt 0.5 1
vt 0.5416666865348816 1
vt 0.5833333134651184 1
vt 0.625 1
vt 0.6666666865348816 1
vt 0.7083333134651184 1
vt 0.75 1
vt 0.7916666865348816 1
vt 0.8333333134651184 1
vt 0.875 1
vt 0.9166666865348816 1
vt 0.9583333134651184 1
vt 1 1
vt 0 0
vt 0.0416666679084301 0
vt 0.0833333358168602 0
vt 0.125 0
vt 0.1666666716337204 0
vt 0.2083333283662796 0
vt 0.25 0
vt 0.2916666567325592 0
vt 0.3333333432674408 0
vt 0.375 0
vt 0.4166666567325592 0
vt 0.4583333432674408 0
vt 0.5 0
vt 0.5416666865348816 0
vt 0.5833333134651184 0
vt 0.625 0
vt 0.6666666865348816 0
vt 0.7083333134651184 0
vt 0.75 0
vt 0.7916666865348816 0
vt 0.8333333134651184 0
vt 0.875 0
vt 0.9166666865348816 0
vt 0.9583333134651184 0
vt 1 0
vt 0.5 0.5
vt 0.5 0.5
vt 0.5 0.5
vt 0.5 0.5
vt 0.5 0.5
vt 0.5 0.5
vt 0.5 0.5
vt 0.5 0.5
vt 0.5 0.5
vt 0.5 0.5
vt 0.5 0.5
vt 0.5 0.5
vt 0.5 0.5
vt 0.5 0.5
vt 0.5 0.5
vt 0.5 0.5
vt 0.5 0.5
vt 0.5 0.5
vt 0.5 0.5
vt 0.5 0.5
vt 0.5 0.5
vt 0.5 0.5
vt 0.5 0.5
vt 0.5 0.5
vt 1 0.5
vt 0.9829629063606262 0.370590478181839
vt 0.9330127239227295 0.25
vt 0.8535534143447876 0.1464466154575348
vt 0.75 0.0669872984290123
vt 0.6294095516204834 0.017037086188793182
vt 0.5 0
vt 0.370590478181839 0.017037086188793182
vt 0.25 0.0669872984290123
vt 0.1464466154575348 0.1464466154575348
vt 0.0669872984290123 0.25
vt 0.017037086188793182 0.370590478181839
vt 0 0.5
vt 0.017037086188793182 0.6294095516204834
vt 0.0669872984290123 0.75
vt 0.1464466154575348 0.8535534143447876
vt 0.25 0.9330127239227295
vt 0.370590478181839 0.9829629063606262
vt 0.5 1
vt 0.6294095516204834 0.9829629063606262
vt 0.75 0.9330127239227295
vt 0.8535534143447876 0.8535534143447876
vt 0.9330127239227295 0.75
vt 0.9829629063606262 0.6294095516204834
vt 1 0.5
vn -0.2797894915055562 0.34888083989101815 0.8944271909999157
vn -0.09919548342682107 0.49371053614675 0.8639503241306227
vn 0.06909134671757704 0.6286703162202928 0.7745966817074731
vn 0.213602525614263 0.744562932337413 0.6324555326980082
vn 0.3244898654521721 0.8334904539794955 0.44721358470409384
vn 0.3941965355317679 0.8893926324763892 0.23149478756868327
vn 0.41797218827648014 0.9084598229021307 5.4767870549654436e-17
vn 0.3941965355317679 0.8893926324763892 -0.23149478756868327
vn 0.3244898654521721 0.8334904539794955 -0.44721358470409384
vn 0.213602525614263 0.744562932337413 -0.6324555326980082
vn 0.06909134671757704 0.6286703162202928 -0.7745966817074731
vn -0.09919548342682107 0.49371053614675 -0.8639503241306227
vn -0.2797894915055561 0.3488808398910182 -0.8944271909999157
vn -0.4603835006518593 0.20405114496648005 -0.8639503241306227
vn -0.6286703162202928 0.06909134671757704 -0.7745966817074731
vn -0.7731815062742451 -0.046801255487096335 -0.6324555326980082
vn -0.8840688349548879 -0.13572879104162555 -0.44721358470409384
vn -0.9537755196104484 -0.19163095136315939 -0.23149478756868327
vn -0.9775511712875927 -0.21069814312009433 -1.6430361495768584e-16
vn -0.9537755196104484 -0.19163095136315939 0.23149478756868327
vn -0.8840688349548879 -0.13572879104162555 0.44721358470409384
vn -0.7731815062742451 -0.046801255487096335 0.6324555326980082
vn -0.6286703162202928 0.06909134671757704 0.7745966817074731
vn -0.4603835006518593 0.20405114496648005 0.8639503241306227
vn -0.2797894915055564 0.348880839891018 0.8944271909999157
vn -0.2797894915055562 0.34888083989101815 0.8944271909999157
vn -0.09919548342682107 0.49371053614675 0.8639503241306227
vn 0.06909134671757704 0.6286703162202928 0.7745966817074731
vn 0.213602525614263 0.744562932337413 0.6324555326980082
vn 0.3244898654521721 0.8334904539794955 0.44721358470409384
vn 0.3941965355317679 0.8893926324763892 0.23149478756868327
vn 0.41797218827648014 0.9084598229021307 5.4767870549654436e-17
vn 0.3941965355317679 0.8893926324763892 -0.23149478756868327
vn 0.3244898654521721 0.8334904539794955 -0.44721358470409384
vn 0.213602525614263 0.744562932337413 -0.6324555326980082
vn 0.06909134671757704 0.6286703162202928 -0.7745966817074731
vn -0.09919548342682107 0.49371053614675 -0.8639503241306227
vn -0.2797894915055561 0.3488808398910182 -0.8944271909999157
vn -0.4603835006518593 0.20405114496648005 -0.8639503241306227
vn -0.6286703162202928 0.06909134671757704 -0.7745966817074731
vn -0.7731815062742451 -0.046801255487096335 -0.6324555326980082
vn -0.8840688349548879 -0.13572879104162555 -0.44721358470409384
vn -0.9537755196104484 -0.19163095136315939 -0.23149478756868327
vn -0.9775511712875927 -0.21069814312009433 -1.6430361495768584e-16
vn -0.9537755196104484 -0.19163095136315939 0.23149478756868327
vn -0.8840688349548879 -0.13572879104162555 0.44721358470409384
vn -0.7731815062742451 -0.046801255487096335 0.6324555326980082
vn -0.6286703162202928 0.06909134671757704 0.7745966817074731
vn -0.4603835006518593 0.20405114496648005 0.8639503241306227
vn -0.2797894915055564 0.348880839891018 0.8944271909999157
vn 0.6256283223965238 -0.780121274043537 0
vn 0.6256283223965238 -0.780121274043537 0
vn 0.6256283223965238 -0.780121274043537 0
vn 0.6256283223965238 -0.780121274043537 0
vn 0.6256283223965238 -0.780121274043537 0
vn 0.6256283223965238 -0.780121274043537 0
vn 0.6256283223965238 -0.780121274043537 0
vn 0.6256283223965238 -0.780121274043537 0
vn 0.6256283223965238 -0.780121274043537 0
vn 0.6256283223965238 -0.780121274043537 0
vn 0.6256283223965238 -0.780121274043537 0
vn 0.6256283223965238 -0.780121274043537 0
vn 0.6256283223965238 -0.780121274043537 0
vn 0.6256283223965238 -0.780121274043537 0
vn 0.6256283223965238 -0.780121274043537 0
vn 0.6256283223965238 -0.780121274043537 0
vn 0.6256283223965238 -0.780121274043537 0
vn 0.6256283223965238 -0.780121274043537 0
vn 0.6256283223965238 -0.780121274043537 0
vn 0.6256283223965238 -0.780121274043537 0
vn 0.6256283223965238 -0.780121274043537 0
vn 0.6256283223965238 -0.780121274043537 0
vn 0.6256283223965238 -0.780121274043537 0
vn 0.6256283223965238 -0.780121274043537 0
vn 0.6256283223965238 -0.780121274043537 0
vn 0.6256283223965238 -0.780121274043537 0
vn 0.6256283223965238 -0.780121274043537 0
vn 0.6256283223965238 -0.780121274043537 0
vn 0.6256283223965238 -0.780121274043537 0
vn 0.6256283223965238 -0.780121274043537 0
vn 0.6256283223965238 -0.780121274043537 0
vn 0.6256283223965238 -0.780121274043537 0
vn 0.6256283223965238 -0.780121274043537 0
vn 0.6256283223965238 -0.780121274043537 0
vn 0.6256283223965238 -0.780121274043537 0
vn 0.6256283223965238 -0.780121274043537 0
vn 0.6256283223965238 -0.780121274043537 0
vn 0.6256283223965238 -0.780121274043537 0
vn 0.6256283223965238 -0.780121274043537 0
vn 0.6256283223965238 -0.780121274043537 0
vn 0.6256283223965238 -0.780121274043537 0
vn 0.6256283223965238 -0.780121274043537 0
vn 0.6256283223965238 -0.780121274043537 0
vn 0.6256283223965238 -0.780121274043537 0
vn 0.6256283223965238 -0.780121274043537 0
vn 0.6256283223965238 -0.780121274043537 0
vn 0.6256283223965238 -0.780121274043537 0
vn 0.6256283223965238 -0.780121274043537 0
vn 0.6256283223965238 -0.780121274043537 0
f 3/1/1 28/26/26 4/2/2
f 28/26/26 29/27/27 4/2/2
f 4/2/2 29/27/27 5/3/3
f 29/27/27 30/28/28 5/3/3
f 5/3/3 30/28/28 6/4/4
f 30/28/28 31/29/29 6/4/4
f 6/4/4 31/29/29 7/5/5
f 31/29/29 32/30/30 7/5/5
f 7/5/5 32/30/30 8/6/6
f 32/30/30 33/31/31 8/6/6
f 8/6/6 33/31/31 9/7/7
f 33/31/31 34/32/32 9/7/7
f 9/7/7 34/32/32 10/8/8
f 34/32/32 35/33/33 10/8/8
f 10/8/8 35/33/33 11/9/9
f 35/33/33 36/34/34 11/9/9
f 11/9/9 36/34/34 12/10/10
f 36/34/34 37/35/35 12/10/10
f 12/10/10 37/35/35 13/11/11
f 37/35/35 38/36/36 13/11/11
f 13/11/11 38/36/36 14/12/12
f 38/36/36 39/37/37 14/12/12
f 14/12/12 39/37/37 15/13/13
f 39/37/37 40/38/38 15/13/13
f 15/13/13 40/38/38 16/14/14
f 40/38/38 41/39/39 16/14/14
f 16/14/14 41/39/39 17/15/15
f 41/39/39 42/40/40 17/15/15
f 17/15/15 42/40/40 18/16/16
f 42/40/40 43/41/41 18/16/16
f 18/16/16 43/41/41 19/17/17
f 43/41/41 44/42/42 19/17/17
f 19/17/17 44/42/42 20/18/18
f 44/42/42 45/43/43 20/18/18
f 20/18/18 45/43/43 21/19/19
f 45/43/43 46/44/44 21/19/19
f 21/19/19 46/44/44 22/20/20
f 46/44/44 47/45/45 22/20/20
f 22/20/20 47/45/45 23/21/21
f 47/45/45 48/46/46 23/21/21
f 23/21/21 48/46/46 24/22/22
f 48/46/46 49/47/47 24/22/22
f 24/22/22 49/47/47 25/23/23
f 49/47/47 50/48/48 25/23/23
f 25/23/23 50/48/48 26/24/24
f 50/48/48 51/49/49 26/24/24
f 26/24/24 51/49/49 27/25/25
f 51/49/49 52/50/50 27/25/25
f 78/76/76 77/75/75 53/51/51
f 79/77/77 78/76/76 54/52/52
f 80/78/78 79/77/77 55/53/53
f 81/79/79 80/78/78 56/54/54
f 82/80/80 81/79/79 57/55/55
f 83/81/81 82/80/80 58/56/56
f 84/82/82 83/81/81 59/57/57
f 85/83/83 84/82/82 60/58/58
f 86/84/84 85/83/83 61/59/59
f 87/85/85 86/84/84 62/60/60
f 88/86/86 87/85/85 63/61/61
f 89/87/87 88/86/86 64/62/62
f 90/88/88 89/87/87 65/63/63
f 91/89/89 90/88/88 66/64/64
f 92/90/90 91/89/89 67/65/65
f 93/91/91 92/90/90 68/66/66
f 94/92/92 93/91/91 69/67/67
f 95/93/93 94/92/92 70/68/68
f 96/94/94 95/93/93 71/69/69
f 97/95/95 96/94/94 72/70/70
f 98/96/96 97/95/95 73/71/71
f 99/97/97 98/96/96 74/72/72
f 100/98/98 99/97/97 75/73/73
f 101/99/99 100/98/98 76/74/74
