o GsfElectrons_V2
v -0.004519740119576454 -0.0030732599552720785 -0.03346389904618263
v -0.015207155607640743 0.012177273631095886 -0.1110338494181633
v -0.026913326233625412 0.027937084436416626 -0.19301828742027283
v -0.03957524523139 0.044167354702949524 -0.27912306785583496
v -0.05312991514801979 0.060829270631074905 -0.36905401945114136
v -0.0675143375992775 0.0778840109705925 -0.46251705288887024
v -0.08266550302505493 0.09529276937246323 -0.5592179894447327
v -0.09852041304111481 0.11301673203706741 -0.6588626503944397
v -0.11501606553792953 0.1310170739889145 -0.7611569166183472
v -0.13208945095539093 0.14925497770309448 -0.8658066391944885
v -0.1496775895357132 0.16769163310527802 -0.972517728805542
v -0.16771745681762695 0.1862882375717163 -1.0809959173202515
v -0.1861460655927658 0.2050059586763382 -1.19094717502594
v -0.20490039885044098 0.2238059788942337 -1.302077293395996
v -0.22391746938228607 0.24264949560165405 -1.4140920639038086
v -0.2431342750787735 0.2614976763725281 -1.5266975164413452
v -0.2624877989292145 0.2803117334842682 -1.639599323272705
v -0.2819150686264038 0.2990528345108032 -1.752503514289856
v -0.3013530373573303 0.317682147026062 -1.865115761756897
v -0.3207387626171112 0.33616089820861816 -1.977142095565796
v -0.3400091826915741 0.3544502258300781 -2.0882880687713623
v -0.3591013252735138 0.3725113272666931 -2.1982600688934326
v -0.3779522180557251 0.39030539989471436 -2.3067634105682373
v -0.39649879932403564 0.40779364109039307 -2.413504123687744
v -0.41467809677124023 0.4249372184276581 -2.518188238143921
v -0.4324271082878113 0.44169729948043823 -2.620521306991577
v -0.4496828317642212 0.45803511142730713 -2.7202093601226807
v -0.4663822650909424 0.4739117920398712 -2.81695818901062
v -0.48246240615844727 0.4892885386943817 -2.9104738235473633
v -0.49786025285720825 0.5041265487670898 -3.000462055206299
v -0.5125128030776978 0.5183870196342468 -3.0866284370422363
v -0.5263570547103882 0.5320311188697815 -3.1686792373657227
v -0.539330005645752 0.5450199842453003 -3.2463200092315674
l 1 2 3 4 5 6 7 8 9 10 11 12 13 14 15 16 17 18 19 20 21 22 23 24 25 26 27 28 29 30 31 32 33 
